<?xml version="1.0" encoding="UTF-8" standalone="no"?>
<svg
   xmlns:dc="http://purl.org/dc/elements/1.1/"
   xmlns:cc="http://creativecommons.org/ns#"
   xmlns:rdf="http://www.w3.org/1999/02/22-rdf-syntax-ns#"
   xmlns:svg="http://www.w3.org/2000/svg"
   xmlns="http://www.w3.org/2000/svg"
   viewBox="0 0 246.78751 62.150002"
   height="62.150002"
   width="246.78751"
   xml:space="preserve"
   version="1.1"
   id="svg2"><metadata
     id="metadata8"><rdf:RDF><cc:Work
         rdf:about=""><dc:format>image/svg+xml</dc:format><dc:type
           rdf:resource="http://purl.org/dc/dcmitype/StillImage" /></cc:Work></rdf:RDF></metadata><defs
     id="defs6" /><g
     transform="matrix(1.25,0,0,-1.25,0,62.15)"
     id="g10"><g
       transform="scale(0.1,0.1)"
       id="g12"><path
         id="path14"
         style="fill:#6ba630;fill-opacity:1;fill-rule:nonzero;stroke:none"
         d="m 790.602,398.066 -4.981,0 c -68.457,0 -114.492,-34.511 -114.492,-82.832 0,-35.683 32.344,-55.82 89.59,-55.82 68.457,0 119.472,33.977 119.472,81.133 0,35.078 -34.843,57.519 -89.589,57.519 z m 39.804,-271.523 c -18.672,5.754 -39.804,9.777 -78.359,14.953 -42.344,6.336 -69.707,9.238 -84.649,9.238 l -4.98,0 c -18.672,-1.171 -54.746,-9.238 -83.379,-19.015 -41.055,-14.364 -60.98,-30.508 -60.98,-50.6448 0,-34.4922 69.711,-57.4804 174.203,-57.4804 105.82,0 187.929,27.5703 187.929,63.8476 0,16.0936 -17.402,29.9136 -49.785,39.1016 z m 206.914,269.648 -21.23,-14.472 c -25.274,4.172 -58.574,3.918 -58.574,3.918 18.769,-15.032 23.769,-24.848 23.769,-42.219 0,-58.379 -96.308,-104.637 -220.097,-104.637 -35.02,0 -66.309,2.324 -98.848,8.672 -23.77,-9.25 -32.52,-15.039 -32.52,-24.297 0,-6.347 6.25,-12.734 15.02,-17.324 20.019,-8.691 43.769,-13.312 122.578,-23.703 100.039,-13.301 127.578,-19.109 156.348,-29.5 33.75,-12.141 51.25,-30.039 51.25,-50.313 C 975.016,43.9258 848.707,0 677.359,0 527.262,0 427.227,31.1914 427.227,77.4727 c 0,19.0507 16.281,35.8283 47.531,49.1403 22.515,9.832 42.527,16.18 96.312,29.481 l 35,8.664 c -53.769,12.754 -76.289,23.719 -76.289,37.019 0,10.411 16.27,23.719 48.809,37.004 l 26.23,10.965 18.77,8.117 c -35,16.766 -50.039,34.121 -50.039,56.668 0,61.27 101.308,107.532 233.906,107.532 36.25,0 58.77,-2.325 96.27,-9.836 l 107.833,0 c 48.73,0 6.83,-3.661 43.1,-1.348 l 2.66,-3.535 -20,-11.153" /><path
         id="path16"
         style="fill:#6ba630;fill-opacity:1;fill-rule:nonzero;stroke:none"
         d="m 1135.5,184.855 0,137.442 c 0,30.992 -19.63,41.433 -37.52,41.433 -17.91,0 -37.97,-10.441 -37.97,-41.433 l 0,-137.442 -56.69,0 0,227.305 55.41,0 0,-20.93 c 14.84,15.696 35.76,23.547 56.71,23.547 22.68,0 41.02,-7.433 53.64,-20.07 18.34,-18.309 23.14,-39.687 23.14,-64.551 l 0,-145.301 -56.72,0" /><path
         id="path18"
         style="fill:#6ba630;fill-opacity:1;fill-rule:nonzero;stroke:none"
         d="m 1352.44,353.723 c -6.55,6.531 -15.28,10.007 -26.62,10.007 -11.35,0 -19.63,-3.476 -26.18,-10.007 -11.77,-11.797 -13.06,-31.426 -13.06,-54.993 0,-23.566 1.29,-43.621 13.06,-55.371 6.55,-6.582 14.83,-10.07 26.18,-10.07 11.34,0 20.07,3.488 26.62,10.07 11.79,11.75 13.1,31.805 13.1,55.371 0,23.567 -1.31,43.196 -13.1,54.993 z m 44.06,-143.559 c -13.97,-14.812 -37.09,-27.879 -70.68,-27.879 -33.58,0 -56.29,13.067 -70.24,27.879 -20.51,21.399 -25.72,47.141 -25.72,88.566 0,41.008 5.21,66.739 25.72,88.118 13.95,14.843 36.66,27.929 70.24,27.929 33.59,0 56.71,-13.086 70.68,-27.929 20.51,-21.379 25.74,-47.11 25.74,-88.118 0,-41.425 -5.23,-67.167 -25.74,-88.566" /><path
         id="path20"
         style="fill:#6ba630;fill-opacity:1;fill-rule:nonzero;stroke:none"
         d="m 1531.73,184.855 c -46.68,0 -66.31,32.723 -66.31,65 l 0,245.633 56.72,0 0,-242.148 c 0,-13.516 5.67,-20.496 20.1,-20.496 l 21.82,0 0,-47.989 -32.33,0" /><path
         id="path22"
         style="fill:#6ba630;fill-opacity:1;fill-rule:nonzero;stroke:none"
         d="m 1600.66,184.855 0,227.305 56.72,0 0,-227.305 -56.72,0 z m -0.88,266.133 0,46.239 58.03,0 0,-46.239 -58.03,0" /><path
         id="path24"
         style="fill:#6ba630;fill-opacity:1;fill-rule:nonzero;stroke:none"
         d="m 1827.07,280.832 -44.91,0 c -20.52,0 -31.85,-9.582 -31.85,-25.723 0,-15.714 10.49,-26.164 32.71,-26.164 15.74,0 25.76,1.301 35.78,10.879 6.1,5.703 8.27,14.864 8.27,28.828 l 0,12.18 z m 1.32,-95.977 0,19.649 c -15.27,-15.285 -29.63,-21.797 -55.84,-21.797 -25.72,0 -44.49,6.512 -58,20.039 -12.25,12.664 -18.79,30.996 -18.79,51.063 0,36.191 24.88,65.851 77.67,65.851 l 53.64,0 0,11.367 c 0,24.844 -12.19,35.77 -42.29,35.77 -21.82,0 -31.86,-5.262 -43.63,-18.758 l -36.23,35.34 c 22.26,24.414 44.1,31.398 82.05,31.398 63.69,0 96.83,-27.05 96.83,-80.273 l 0,-149.649 -55.41,0" /><path
         id="path26"
         style="fill:#6ba630;fill-opacity:1;fill-rule:nonzero;stroke:none"
         d="m 264.363,184.855 0,137.442 c 0,30.992 -19.636,41.433 -37.515,41.433 -17.446,0 -37.953,-10.441 -37.953,-40.136 l 0,-138.739 -56.7,0 0,137.442 c 0,30.992 -19.644,41.433 -37.5192,41.433 -17.8906,0 -37.9649,-10.441 -37.9649,-41.433 l 0,-137.442 -56.7109,0 0,227.305 55.4102,0 0,-20.93 c 14.8242,15.247 35.7695,23.547 56.7068,23.547 25.293,0 45.805,-9.152 60.207,-28.781 19.192,20.059 39.696,28.781 68.067,28.781 22.668,0 43.172,-7.433 55.832,-20.07 18.316,-18.309 24.871,-39.687 24.871,-64.551 l 0,-145.301 -56.731,0" /><path
         id="path28"
         style="fill:#6ba630;fill-opacity:1;fill-rule:nonzero;stroke:none"
         d="m 485,280.832 -44.934,0 c -20.515,0 -31.843,-9.582 -31.843,-25.723 0,-15.714 10.468,-26.164 32.707,-26.164 15.711,0 25.75,1.301 35.789,10.879 6.086,5.703 8.281,14.864 8.281,28.828 l 0,12.18 z m 1.316,-95.977 0,19.649 c -15.281,-15.285 -29.675,-21.797 -55.847,-21.797 -25.742,0 -44.492,6.512 -58.02,20.039 -12.215,12.664 -18.758,30.996 -18.758,51.063 0,36.191 24.864,65.851 77.649,65.851 l 53.66,0 0,11.367 c 0,24.844 -12.207,35.77 -42.312,35.77 -21.809,0 -31.848,-5.262 -43.625,-18.758 l -36.211,35.34 c 22.246,24.414 44.062,31.398 82.019,31.398 63.692,0 96.844,-27.05 96.844,-80.273 l 0,-149.649 -55.399,0" /><path
         id="path30"
         style="fill:#6ba630;fill-opacity:1;fill-rule:nonzero;stroke:none"
         d="m 1932.67,435.488 -6.78,0 0,-8.886 6.78,0 c 2.93,0 4.69,2.109 4.69,4.453 0,2.336 -1.76,4.433 -4.69,4.433 z m 4.73,-34.375 -6.66,16.485 -4.85,0 0,-16.485 -11.34,0 0,44.192 19.76,0 c 9.83,0 14.63,-7.004 14.63,-14.25 0,-5.977 -3.16,-9.707 -6.68,-11.465 l 8.3,-18.477 -13.16,0" /><path
         id="path32"
         style="fill:#6ba630;fill-opacity:1;fill-rule:nonzero;stroke:none"
         d="m 1898.76,423.223 c 0,-19.004 13.48,-32.793 32.06,-32.793 18.57,0 32.05,13.789 32.05,32.793 0,18.996 -13.48,32.785 -32.05,32.785 -18.58,0 -32.06,-13.789 -32.06,-32.785 z m -11.42,0 c 0,23.976 19.51,43.488 43.48,43.488 23.96,0 43.47,-19.512 43.47,-43.488 0,-23.993 -19.51,-43.504 -43.47,-43.504 -23.97,0 -43.48,19.511 -43.48,43.504" /></g></g></svg>